# xmcd CD database file generated by OrangeCD 5.2
#
# Track frame offsets:
#	150
#	16936
#	35768
#	51874
#	71127
#	90542
#	108195
#	125824
#	141612
#	168705
#	184401
#	209933
#	226274
#	247019
#
# Disc length: 3544 seconds
#
# Revision: 1
# Processed by: cddbd v1.5.2PL0 Copyright (c) Steve Scherf et al.
# Submitted via: OrangeCD 5.2
#
DISCID=de0dd60e
DTITLE=Jacksoul - My soul
DYEAR=2006
DGENRE=R&B Male 
TTITLE0=One Song
TTITLE1=My Ever Changing Moods
TTITLE2=Superfly
TTITLE3=Love Tko
TTITLE4=Ashes To Ashes
TTITLE5=Try
TTITLE6=These Eyes
TTITLE7=Been Caught Stealing
TTITLE8=High And Dry
TTITLE9=Pieces Of Me
TTITLE10=Its Over
TTITLE11=Knock On Wood
TTITLE12=1979
TTITLE13=Change Is Gonna Come
EXTD=
EXTT0=
EXTT1=
EXTT2=
EXTT3=
EXTT4=
EXTT5=
EXTT6=
EXTT7=
EXTT8=
EXTT9=
EXTT10=
EXTT11=
EXTT12=
EXTT13=
PLAYORDER=
